HIERARCHY
ROOT Hips
{
    OFFSET 0.000000 0.000000 0.000000
    CHANNELS 6 Xposition Yposition Zposition Zrotation Xrotation Yrotation
    JOINT Spine
    {
        OFFSET -0.000000 14.517291 0.000000
        CHANNELS 3 Zrotation Xrotation Yrotation
        JOINT Spine1
        {
            OFFSET -0.000000 37.558300 0.000000
            CHANNELS 3 Zrotation Xrotation Yrotation
            JOINT Neck
            {
                OFFSET -0.000000 37.404057 3.400369
                CHANNELS 3 Zrotation Xrotation Yrotation
                JOINT Head
                {
                    OFFSET -0.000000 24.785618 -3.540803
                    CHANNELS 3 Zrotation Xrotation Yrotation
                    End Site
                    {
                        OFFSET -0.000000 35.408028 0.000000
                    }
                }
            }
            JOINT LeftShoulder
            {
                OFFSET 6.992933 33.973492 -0.192664
                CHANNELS 3 Zrotation Xrotation Yrotation
                JOINT LeftArm
                {
                    OFFSET 21.527611 0.000000 0.000000
                    CHANNELS 3 Zrotation Xrotation Yrotation
                    JOINT LeftForeArm
                    {
                        OFFSET 56.353916 0.000000 0.000000
                        CHANNELS 3 Zrotation Xrotation Yrotation
                        JOINT LeftHand
                        {
                            OFFSET 47.774071 0.000000 0.000000
                            CHANNELS 3 Zrotation Xrotation Yrotation
                            End Site
                            {
                                OFFSET 26.556021 0.000000 0.000000
                            }
                        }
                    }
                }
            }
            JOINT RightShoulder
            {
                OFFSET -7.065357 33.973492 -0.192664
                CHANNELS 3 Zrotation Xrotation Yrotation
                JOINT RightArm
                {
                    OFFSET -21.527611 0.000000 0.000000
                    CHANNELS 3 Zrotation Xrotation Yrotation
                    JOINT RightForeArm
                    {
                        OFFSET -56.353916 0.000000 0.000000
                        CHANNELS 3 Zrotation Xrotation Yrotation
                        JOINT RightHand
                        {
                            OFFSET -47.774071 0.000000 0.000000
                            CHANNELS 3 Zrotation Xrotation Yrotation
                            End Site
                            {
                                OFFSET -26.556021 0.000000 0.000000
                            }
                        }
                    }
                }
            }
        }
    }
    JOINT LeftUpLeg
    {
        OFFSET 17.704014 0.000000 0.000000
        CHANNELS 3 Zrotation Xrotation Yrotation
        JOINT LeftLeg
        {
            OFFSET -0.000000 -81.181816 0.000000
            CHANNELS 3 Zrotation Xrotation Yrotation
            JOINT LeftFoot
            {
                OFFSET -0.000000 -62.821102 0.000000
                CHANNELS 3 Zrotation Xrotation Yrotation
                JOINT LeftToeBase
                {
                    OFFSET -0.000000 -11.507608 26.556021
                    CHANNELS 3 Zrotation Xrotation Yrotation
                    End Site
                    {
                        OFFSET -0.000000 0.000000 7.081605
                    }
                }
            }
        }
    }
    JOINT RightUpLeg
    {
        OFFSET -17.704014 0.000000 0.000000
        CHANNELS 3 Zrotation Xrotation Yrotation
        JOINT RightLeg
        {
            OFFSET -0.000000 -81.181816 0.000000
            CHANNELS 3 Zrotation Xrotation Yrotation
            JOINT RightFoot
            {
                OFFSET -0.000000 -62.821102 0.000000
                CHANNELS 3 Zrotation Xrotation Yrotation
                JOINT RightToeBase
                {
                    OFFSET -0.000000 -11.507608 26.556021
                    CHANNELS 3 Zrotation Xrotation Yrotation
                    End Site
                    {
                        OFFSET -0.000000 0.000000 7.081605
                    }
                }
            }
        }
    }
}
MOTION
Frames:    10
Frame Time:    0.008333
13.285553    156.689270    -113.930000    -0.575012    -8.764062    48.087170    4.323195    -2.571031    3.105976    -14.522362    -1.770770    0.771965    -8.503633    -4.897304    -24.899298    20.643654    8.939371    -23.157162    7.797503    3.373011    -24.046747    -32.032108    25.801064    -49.437630    -18.632013    10.213831    -102.059349    1.005862    -13.240396    -7.192351    -25.886034    -18.460579    -5.559357    36.894447    -22.003485    83.828094    -2.516740    -15.418942    103.885979    1.689687    -12.309068    -0.841337    22.263302    -0.230463    -3.698599    -12.253955    32.821934    -20.946209    2.098952    -26.909405    43.156162    0.000000    0.000000    0.000000    -14.172009    -12.581449    -14.411538    8.581079    23.289021    -16.829796    5.797054    8.931179    -16.020514    0.000000    0.000000    0.000000    
13.277771    156.684357    -113.899002    -0.574265    -8.759384    48.128105    4.314787    -2.583006    3.095562    -14.522603    -1.761262    0.769635    -8.506208    -4.868563    -24.901531    20.678715    8.921026    -23.155910    7.798957    3.380487    -24.046516    -32.010986    25.814899    -49.463383    -18.596558    10.158416    -102.081375    0.991679    -13.257730    -7.191289    -25.870844    -18.427837    -5.575646    36.891499    -22.021406    83.820976    -2.482831    -15.347680    103.825714    1.695464    -12.281490    -0.765519    22.269648    -0.249297    -3.711403    -12.241299    32.827770    -20.973436    2.095929    -26.905731    43.159424    0.000000    0.000000    0.000000    -14.190715    -12.604097    -14.398659    8.613274    23.369562    -16.841669    5.834375    8.889840    -16.073828    0.000000    0.000000    0.000000    
13.274068    156.681015    -113.866043    -0.570380    -8.760441    48.168873    4.311743    -2.591733    3.082096    -14.524912    -1.745311    0.767021    -8.484573    -4.867459    -24.901602    20.672369    8.921946    -23.160839    7.809073    3.383548    -24.041208    -31.997694    25.813982    -49.499073    -18.569464    10.125994    -102.095612    1.026418    -13.262944    -7.186247    -25.853306    -18.418776    -5.575760    36.829803    -22.010147    83.787926    -2.486347    -15.281388    103.744789    1.350449    -12.210758    -0.645899    22.272789    -0.262900    -3.733720    -12.216117    32.844200    -21.015064    2.088603    -26.910389    43.170300    0.000000    0.000000    0.000000    -14.207295    -12.612361    -14.407804    8.638004    23.436157    -16.872972    5.856750    8.865276    -16.080725    0.000000    0.000000    0.000000    
13.264665    156.677979    -113.834396    -0.574182    -8.760340    48.208527    4.301379    -2.598055    3.066939    -14.505628    -1.739498    0.763018    -8.482946    -4.849832    -24.901457    20.686975    8.905965    -23.158581    7.794908    3.380972    -24.038277    -31.990219    25.813749    -49.514545    -18.545624    10.099792    -102.105980    1.028096    -13.262551    -7.184876    -25.845125    -18.384562    -5.582449    36.820431    -22.027966    83.773544    -2.463261    -15.228718    103.693062    1.309726    -12.188026    -0.573997    22.287561    -0.280617    -3.769195    -12.223222    32.839813    -20.990433    2.073153    -26.913086    43.150620    0.000000    0.000000    0.000000    -14.217421    -12.628986    -14.440257    8.653114    23.505228    -16.885611    5.878024    8.841791    -16.090977    0.000000    0.000000    0.000000    
13.258064    156.675415    -113.803192    -0.570416    -8.764256    48.252644    4.306775    -2.594382    3.043396    -14.516570    -1.734342    0.755661    -8.463439    -4.814192    -24.897781    20.710024    8.863701    -23.152122    7.803137    3.379355    -24.036245    -31.993408    25.796593    -49.525402    -18.541988    10.088912    -102.118660    1.066716    -13.275815    -7.151684    -25.824713    -18.362038    -5.581142    36.774212    -22.014189    83.732712    -2.472500    -15.248647    103.651695    1.385829    -12.198796    -0.524870    22.296644    -0.288775    -3.782764    -12.196900    32.842022    -21.048552    2.084558    -26.906441    43.163940    0.000000    0.000000    0.000000    -14.233489    -12.633905    -14.460364    8.677076    23.572817    -16.918844    5.900063    8.812507    -16.082500    0.000000    0.000000    0.000000    
13.252819    156.671509    -113.773438    -0.568080    -8.757021    48.287781    4.301352    -2.600997    3.027124    -14.516808    -1.733434    0.750256    -8.443366    -4.778756    -24.894894    20.706348    8.827667    -23.149202    7.803017    3.380047    -24.048399    -32.013618    25.764301    -49.506813    -18.547625    10.098590    -102.125519    1.092033    -13.278096    -7.166920    -25.800034    -18.318008    -5.578161    36.752659    -22.017818    83.712738    -2.481198    -15.248482    103.609154    1.403999    -12.189380    -0.438907    22.302284    -0.291946    -3.797646    -12.190982    32.826618    -21.074759    2.073761    -26.920387    43.173050    0.000000    0.000000    0.000000    -14.259174    -12.646343    -14.524783    8.692026    23.644051    -16.901947    5.894360    8.780228    -16.075947    0.000000    0.000000    0.000000    
13.249079    156.669128    -113.741112    -0.555150    -8.755124    48.319782    4.285509    -2.591367    3.019954    -14.504560    -1.732011    0.748577    -8.432137    -4.748123    -24.900290    20.714661    8.791985    -23.152348    7.802245    3.375865    -24.073132    -32.034325    25.744387    -49.486622    -18.525515    10.080522    -102.139992    1.068272    -13.272301    -7.183249    -25.804167    -18.284285    -5.589055    36.741325    -21.995016    83.651268    -2.500485    -15.344513    103.608780    1.821573    -12.264070    -0.431632    22.301191    -0.278540    -3.785635    -12.157317    32.809940    -21.121441    2.067658    -26.920227    43.158829    0.000000    0.000000    0.000000    -14.282434    -12.643312    -14.589666    8.692738    23.706141    -16.870146    5.907323    8.738994    -16.054768    0.000000    0.000000    0.000000    
13.249701    156.668335    -113.710533    -0.542998    -8.748764    48.355579    4.278975    -2.587426    3.005321    -14.510618    -1.724648    0.744579    -8.389296    -4.729736    -24.902611    20.680714    8.749207    -23.158564    7.810061    3.373425    -24.080402    -32.051891    25.722290    -49.477116    -18.519146    10.071607    -102.148338    1.078358    -13.277388    -7.203951    -25.785078    -18.248291    -5.601593    36.698036    -21.989061    83.637840    -2.524616    -15.314384    103.569069    1.456152    -12.203078    -0.317381    22.296467    -0.266741    -3.759634    -12.122241    32.786293    -21.161064    2.059249    -26.918129    43.133331    0.000000    0.000000    0.000000    -14.314813    -12.634927    -14.645352    8.721027    23.750257    -16.885868    5.887286    8.716848    -16.022388    0.000000    0.000000    0.000000    
13.247508    156.669922    -113.680313    -0.534426    -8.733624    48.381283    4.258211    -2.594821    3.001824    -14.493376    -1.710951    0.745482    -8.401048    -4.670291    -24.922276    20.720081    8.690964    -23.168543    7.814683    3.373300    -24.092323    -32.059891    25.718464    -49.467068    -18.410170    9.971177    -102.200768    0.863232    -13.244805    -7.226515    -25.786509    -18.212244    -5.614997    36.699223    -21.993528    83.620178    -2.532352    -15.309959    103.545853    1.470095    -12.189311    -0.239391    22.287491    -0.258534    -3.738461    -12.086928    32.759998    -21.221418    2.043279    -26.913248    43.136543    0.000000    0.000000    0.000000    -14.346334    -12.640598    -14.684508    8.737875    23.795832    -16.871677    5.896885    8.692624    -16.024837    0.000000    0.000000    0.000000    
13.242854    156.667252    -113.652908    -0.523479    -8.719787    48.412334    4.231291    -2.583089    2.990631    -14.470024    -1.716617    0.741750    -8.391675    -4.654031    -24.929060    20.710911    8.667974    -23.175066    7.816203    3.380818    -24.100821    -32.043648    25.733480    -49.480286    -18.366034    9.894622    -102.238708    0.893171    -13.281067    -7.228771    -25.781439    -18.191156    -5.631677    36.698280    -21.983059    83.597893    -2.540191    -15.313411    103.535507    1.532943    -12.182556    -0.167789    22.278095    -0.261538    -3.711864    -12.055557    32.753906    -21.248533    2.018672    -26.914194    43.099209    0.000000    0.000000    0.000000    -14.382388    -12.644204    -14.729564    8.767543    23.845806    -16.870039    5.883960    8.664703    -16.017403    0.000000    0.000000    0.000000    
